<?xml version="1.0" standalone="no"?>
<!DOCTYPE svg PUBLIC "-//W3C//DTD SVG 20010904//EN"
 "http://www.w3.org/TR/2001/REC-SVG-20010904/DTD/svg10.dtd">
<svg version="1.0" xmlns="http://www.w3.org/2000/svg"
 width="400.000000pt" height="400.000000pt" viewBox="0 0 400.000000 400.000000"
 preserveAspectRatio="xMidYMid meet">
<metadata>
Created by potrace 1.14, written by Peter Selinger 2001-2017
</metadata>
<g transform="translate(0.000000,400.000000) scale(0.100000,-0.100000)"
fill="#000000" stroke="none">
<path d="M1484 3749 c-123 -15 -187 -77 -167 -158 l10 -37 -121 -12 c-210 -20
-350 -73 -404 -154 -73 -111 0 -266 211 -445 170 -143 280 -221 783 -549 117
-75 267 -195 257 -204 -5 -4 -39 -18 -78 -30 -38 -12 -84 -30 -102 -41 l-32
-18 6 31 6 30 -88 -7 c-49 -4 -100 -11 -114 -14 -23 -7 -21 -9 36 -44 39 -24
73 -37 96 -37 32 0 35 -2 39 -35 2 -19 0 -35 -4 -35 -22 0 -58 -51 -58 -80 0
-45 13 -64 75 -108 l55 -39 -75 -15 c-66 -13 -77 -13 -96 0 -17 12 -23 12 -29
1 -5 -8 -3 -17 7 -24 13 -10 13 -12 -1 -24 -24 -20 -20 -65 10 -95 15 -14 85
-55 156 -92 71 -36 128 -67 126 -70 -2 -2 -98 -13 -214 -24 -349 -35 -726 -88
-756 -106 -10 -7 -161 77 -265 148 -135 90 -243 208 -243 263 0 52 69 111 179
152 l54 20 -47 36 c-46 35 -48 35 -83 21 -82 -35 -162 -103 -182 -157 -55
-145 70 -300 408 -504 l34 -21 -39 -20 c-62 -32 -96 -74 -101 -126 -10 -85 52
-155 212 -242 39 -20 83 -53 99 -71 72 -86 332 -165 645 -198 501 -52 711 -44
841 33 39 23 54 26 117 23 159 -6 273 45 273 124 0 15 -80 45 -119 45 l-26 0
24 -19 24 -18 -33 -12 c-18 -6 -63 -11 -101 -11 l-67 0 -7 33 c-11 48 -42 94
-91 131 l-44 34 88 6 c242 19 609 65 737 92 120 26 193 54 215 81 50 63 9 139
-146 273 -57 49 -105 93 -107 96 -1 3 58 25 131 49 208 69 300 126 321 200 23
83 -27 163 -212 341 -71 68 -127 124 -123 124 3 0 59 11 122 25 179 39 224 65
224 129 0 50 -69 107 -342 284 l-127 82 -97 0 -97 0 164 -103 c249 -155 381
-249 368 -262 -7 -6 -241 -56 -290 -62 -46 -5 -50 -4 -141 64 -129 97 -302
217 -436 303 -88 56 -112 76 -106 89 28 65 35 100 29 138 l-6 43 40 0 c23 0
41 -4 41 -9 0 -5 34 -28 75 -50 72 -40 76 -41 172 -41 l98 0 -95 55 c-105 61
-101 66 33 40 99 -19 217 -19 261 -1 62 26 84 92 51 155 -34 66 -170 151 -335
209 -47 16 -124 55 -172 85 -202 127 -618 267 -953 321 -113 18 -301 26 -381
15z m150 -117 c4 -10 20 -33 37 -50 l31 -32 -48 0 c-27 0 -86 3 -132 7 -79 6
-84 8 -98 35 -13 26 -13 29 2 35 36 14 82 21 141 22 51 1 63 -2 67 -17z m267
-16 c161 -29 343 -75 459 -115 101 -35 93 -37 -64 -11 -66 10 -189 27 -274 36
-117 13 -159 22 -175 35 -12 11 -39 32 -61 49 -21 16 -35 30 -29 30 5 0 70
-11 144 -24z m-416 -231 c43 -36 112 -88 154 -117 72 -50 470 -302 670 -425
92 -56 93 -57 65 -65 -16 -4 -103 -12 -194 -18 -218 -13 -236 -17 -260 -47
-30 -39 -25 -68 21 -117 43 -48 44 -46 -28 -61 -18 -4 -41 -17 -52 -31 l-19
-24 -273 183 c-293 194 -355 239 -490 354 -132 112 -209 214 -209 278 0 81
202 148 461 153 l76 2 78 -65z m291 59 c73 -6 81 -9 77 -25 -14 -52 46 -88
312 -189 123 -47 222 -96 212 -106 -2 -2 -95 19 -208 47 -112 27 -215 48 -228
46 -14 -3 -32 -2 -40 2 -9 3 11 9 44 12 l60 6 -68 1 c-67 2 -68 3 -195 87 -70
47 -138 94 -152 105 l-25 20 65 0 c36 0 102 -3 146 -6z m479 -55 c202 -29 437
-77 455 -93 8 -7 42 -16 75 -20 56 -6 63 -10 113 -60 59 -62 69 -101 28 -112
-58 -14 -497 133 -690 231 -81 41 -141 75 -134 75 7 0 76 -9 153 -21z m885
-244 c30 -19 66 -45 79 -59 l24 -26 -89 0 c-49 0 -93 4 -99 8 -5 4 -10 33 -10
64 0 67 3 68 95 13z m-711 -142 c100 -19 115 -29 127 -89 4 -21 0 -37 -14 -54
l-19 -23 -34 21 c-19 11 -46 33 -59 48 -14 15 -52 49 -85 77 -45 37 -54 49
-35 44 14 -3 67 -14 119 -24z m11 -337 c0 -20 -52 -70 -93 -89 -19 -9 -59 -23
-88 -31 -46 -12 -56 -12 -70 0 -8 8 -21 14 -28 14 -7 0 -36 18 -63 40 -60 47
-62 46 122 55 69 3 141 9 160 14 51 13 60 13 60 -3z m270 -74 c143 -93 412
-284 406 -289 -12 -13 -736 -97 -746 -87 -3 3 -4 37 -3 76 1 69 1 70 -28 81
-16 6 -29 15 -29 18 0 4 -7 15 -16 24 -20 19 -25 15 62 48 88 34 174 108 200
171 10 24 23 42 29 38 5 -3 62 -39 125 -80z m-528 -209 c13 -16 34 -42 46 -59
21 -30 21 -32 3 -48 -9 -9 -21 -16 -25 -16 -4 0 -44 23 -88 52 -74 47 -79 53
-57 59 23 6 23 7 4 15 -19 8 -19 8 5 15 54 15 86 10 112 -18z m1130 -230 c107
-87 252 -233 286 -287 24 -38 29 -53 21 -67 -13 -26 -152 -90 -285 -133 -189
-60 -171 -63 -315 44 -68 50 -229 162 -358 248 -143 97 -226 158 -215 159 11
2 141 16 289 33 149 17 308 37 355 44 144 23 144 23 222 -41z m-1182 -79 c-39
-17 -167 -54 -187 -54 -7 0 -13 4 -13 9 0 12 158 59 200 60 l35 0 -35 -15z
m415 -157 c99 -66 247 -168 329 -226 l148 -106 -113 -22 c-106 -20 -501 -79
-577 -85 -31 -3 -35 0 -49 37 -8 22 -20 67 -27 100 -7 33 -21 77 -31 98 l-18
39 41 37 c51 47 93 138 95 207 1 32 6 50 12 46 6 -3 91 -60 190 -125z m-320
22 c-6 -26 -68 -100 -84 -99 -3 1 -27 20 -54 45 l-47 43 80 27 c44 15 83 31
86 37 12 19 26 -21 19 -53z m-260 -85 l50 -45 -62 41 c-35 22 -63 43 -63 45 0
16 32 -1 75 -41z m121 -238 l69 -65 -25 -24 -25 -24 -92 52 c-51 29 -90 55
-86 59 4 3 -2 13 -13 20 -16 12 -16 15 -4 20 15 4 89 23 101 25 4 1 38 -28 75
-63z m1122 -178 c108 -88 223 -199 219 -211 -12 -38 -495 -111 -934 -141
l-212 -15 -123 64 -124 63 41 12 c22 6 64 25 92 41 63 35 93 38 93 8 0 -19 57
-98 71 -99 6 0 32 80 27 85 -2 1 -21 12 -43 23 -39 19 -41 22 -37 60 l4 40 71
7 c187 18 633 89 722 115 50 14 54 12 133 -52z m-1124 -109 c-74 -34 -254 -71
-254 -52 0 10 232 68 285 71 6 0 -8 -8 -31 -19z m-474 -49 c0 -17 -7 -20 -44
-20 -52 0 -70 -17 -64 -60 4 -29 3 -30 -36 -30 -23 0 -58 -5 -78 -10 -34 -10
-47 -7 -133 31 -52 23 -94 44 -92 45 4 4 239 38 357 52 41 5 78 10 83 11 4 0
7 -8 7 -19z m-469 -143 c74 -35 160 -74 191 -87 32 -13 57 -25 55 -26 -1 -1
-57 -11 -125 -23 -67 -11 -141 -30 -164 -41 l-41 -20 -70 38 c-83 44 -157 107
-157 132 0 10 11 25 25 34 31 21 115 55 136 55 9 1 76 -27 150 -62z m302 -114
c-7 -2 -19 -2 -25 0 -7 3 -2 5 12 5 14 0 19 -2 13 -5z m840 -93 c49 -43 64
-83 43 -115 -56 -86 -314 -129 -541 -89 -167 28 -504 120 -562 153 -31 17 207
43 557 61 113 6 225 12 250 13 25 2 84 4 132 5 84 2 89 1 121 -28z m222 -112
c19 -28 14 -31 -33 -23 -38 6 -39 8 -38 45 l1 38 27 -20 c15 -10 34 -29 43
-40z"/>
<path d="M2315 2430 c3 -5 8 -10 11 -10 2 0 4 5 4 10 0 6 -5 10 -11 10 -5 0
-7 -4 -4 -10z"/>
<path d="M2345 2430 c-3 -6 1 -7 9 -4 18 7 21 14 7 14 -6 0 -13 -4 -16 -10z"/>
<path d="M1356 2111 c-29 -6 -29 -6 31 -43 49 -30 71 -38 110 -38 79 0 83 13
15 54 -60 36 -90 42 -156 27z"/>
<path d="M1131 2082 c-22 -3 -18 -8 37 -43 39 -25 73 -39 94 -39 33 0 32 1
-27 38 -78 50 -76 49 -104 44z"/>
<path d="M885 2038 c-22 -5 -57 -14 -79 -20 l-39 -9 53 -38 53 -38 91 19 c50
10 95 20 100 21 14 4 -106 77 -124 76 -8 -1 -33 -6 -55 -11z"/>
</g>
</svg>
